<svg xmlns="http://www.w3.org/2000/svg" width="28" height="49" viewBox="0 0 28 49">
  <g stroke="#00FF7F" stroke-width="1" fill="none" fill-rule="evenodd">
    <path d="M13.99 9.25l13 7.5v15l-13 7.5L1 31.75v-15l12.99-7.5zM-0.01 58.25l13 7.5v15l-13 7.5L-13 80.75v-15l12.99-7.5zM27.99 58.25l13 7.5v15l-13 7.5L15 80.75v-15l12.99-7.5zM-0.01-15.25l13 7.5v15l-13 7.5L-13 4.25v-15l12.99-7.5zM27.99-15.25l13 7.5v15l-13 7.5L15 4.25v-15l12.99-7.5zM13.99 82.75l13 7.5v15l-13 7.5L1 105.25v-15l12.99-7.5zM-0.01 33.75l13 7.5v15l-13 7.5L-13 56.25v-15l12.99-7.5zM27.99 33.75l13 7.5v15l-13 7.5L15 56.25v-15l12.99-7.5z"/>
  </g>
</svg>
